<svg width="16" height="19" viewBox="0 0 16 19" fill="none" xmlns="http://www.w3.org/2000/svg">
<path d="M15 7.94581H16V18.9458H0V7.94581H1V5.94581C1 3.18581 3.24 0.945805 6 0.945805C6.71 0.945805 7.39 1.09581 8 1.36581C8.6301 1.08793 9.31135 0.944871 10 0.945805C12.76 0.945805 15 3.18581 15 5.94581V7.94581ZM3 5.94581V7.94581H5V5.94581C5 4.81581 5.39 3.78581 6.02 2.94581H6C4.35 2.94581 3 4.29581 3 5.94581ZM13 7.94581V5.94581C13 4.29581 11.65 2.94581 10 2.94581H9.98C10.6376 3.80808 10.9957 4.86142 11 5.94581V7.94581H13ZM8 3.72581C7.39 4.27581 7 5.06581 7 5.94581V7.94581H9V5.94581C9 5.06581 8.61 4.27581 8 3.72581Z" fill="#D2B805"/>
</svg>
