<svg width="21" height="22" viewBox="0 0 21 22" fill="none" xmlns="http://www.w3.org/2000/svg">
<path d="M13.9003 17.3958C15.2503 17.3958 16.3503 16.2958 16.3503 14.9458C16.3503 13.5958 15.2503 12.4958 13.9003 12.4958C12.5403 12.4958 11.4503 13.5958 11.4503 14.9458C11.4503 16.2958 12.5403 17.3958 13.9003 17.3958ZM19.1003 15.6258L20.5803 16.7858C20.7103 16.8958 20.7503 17.0758 20.6603 17.2358L19.2603 19.6558C19.2183 19.728 19.1519 19.7828 19.073 19.8103C18.9941 19.8378 18.9081 19.8362 18.8303 19.8058L17.0903 19.1058C16.7303 19.3858 16.3303 19.6158 15.9103 19.7958L15.6403 21.6458C15.6203 21.8158 15.4703 21.9458 15.3003 21.9458H12.5003C12.3203 21.9458 12.1803 21.8158 12.1503 21.6458L11.8903 19.7958C11.4603 19.6158 11.0703 19.3858 10.7103 19.1058L8.96027 19.8058C8.81027 19.8658 8.62027 19.8058 8.54027 19.6558L7.14027 17.2358C7.09767 17.1636 7.08231 17.0785 7.09699 16.996C7.11166 16.9135 7.15539 16.8389 7.22027 16.7858L8.70027 15.6258L8.65027 14.9458L8.70027 14.2558L7.22027 13.1058C7.15574 13.0525 7.11226 12.9779 7.09761 12.8955C7.08295 12.8131 7.09807 12.7281 7.14027 12.6558L8.54027 10.2358C8.62027 10.0758 8.81027 10.0158 8.96027 10.0758L10.7103 10.7858C11.0703 10.5058 11.4603 10.2658 11.8903 10.0958L12.1503 8.2358C12.1803 8.0758 12.3203 7.9458 12.5003 7.9458H15.3003C15.4703 7.9458 15.6203 8.0758 15.6403 8.2358L15.9103 10.0958C16.3303 10.2658 16.7303 10.5058 17.0903 10.7858L18.8303 10.0758C19.0003 10.0158 19.1703 10.0758 19.2603 10.2358L20.6603 12.6558C20.7503 12.8058 20.7103 12.9958 20.5803 13.1058L19.1003 14.2558L19.1503 14.9458L19.1003 15.6258ZM4.69027 7.0158C5.56027 7.0158 6.26027 6.3158 6.26027 5.4458C6.26027 4.5758 5.56027 3.8658 4.69027 3.8658C4.27123 3.8658 3.86935 4.03226 3.57304 4.32857C3.27673 4.62488 3.11027 5.02676 3.11027 5.4458C3.11027 6.3158 3.82027 7.0158 4.69027 7.0158ZM8.03027 5.8858L9.00027 6.6258C9.07027 6.6958 9.09027 6.8158 9.03027 6.9158L8.13027 8.4758C8.08027 8.5758 7.96027 8.6158 7.86027 8.5758L6.74027 8.1258L6.00027 8.5658L5.81027 9.7558C5.79027 9.8658 5.70027 9.9458 5.59027 9.9458H3.79027C3.67027 9.9458 3.58027 9.8658 3.56027 9.7558L3.40027 8.5658L2.64027 8.1258L1.50027 8.5758C1.41027 8.6158 1.30027 8.5758 1.24027 8.4758L0.340269 6.9158C0.280269 6.8158 0.31027 6.6958 0.39027 6.6258L1.34027 5.8858L1.31027 5.4458L1.34027 5.0058L0.39027 4.2658C0.349191 4.23104 0.321664 4.18292 0.312521 4.1299C0.303378 4.07687 0.313202 4.02231 0.340269 3.9758L1.24027 2.4158C1.30027 2.3158 1.41027 2.2758 1.50027 2.3158L2.63027 2.7658L3.40027 2.3258L3.56027 1.1358C3.58027 1.0258 3.67027 0.945801 3.79027 0.945801H5.59027C5.70027 0.945801 5.79027 1.0258 5.81027 1.1358L6.00027 2.3258L6.74027 2.7658L7.86027 2.3158C7.96027 2.2758 8.08027 2.3158 8.13027 2.4158L9.03027 3.9758C9.09027 4.0758 9.07027 4.1958 9.00027 4.2658L8.03027 5.0058L8.06027 5.4458L8.03027 5.8858Z" fill="#FC5A25"/>
</svg>
