<svg width="24" height="20" viewBox="0 0 24 20" fill="none" xmlns="http://www.w3.org/2000/svg">
<path d="M4.59735 1.01105C4.80848 0.756007 5.07329 0.550701 5.3729 0.409779C5.6725 0.268858 5.99951 0.195794 6.3306 0.195801H17.6699C18.0011 0.195684 18.3282 0.268694 18.628 0.409619C18.9277 0.550545 19.1926 0.75591 19.4039 1.01105L22.9026 5.23955C23.7119 6.21755 23.0159 7.6958 21.7469 7.6958H2.2536C0.984604 7.6958 0.288604 6.21755 1.0986 5.23955L4.59735 1.01105ZM2.99985 9.1958V17.2583C2.99985 17.9048 3.25666 18.5248 3.71378 18.9819C4.1709 19.439 4.79089 19.6958 5.43735 19.6958H18.5624C18.8825 19.6958 19.1994 19.6328 19.4951 19.5103C19.7909 19.3878 20.0596 19.2082 20.2859 18.9819C20.5123 18.7555 20.6918 18.4868 20.8143 18.1911C20.9368 17.8954 20.9999 17.5784 20.9999 17.2583V9.1958H2.99985ZM8.99986 12.9458C8.99986 13.3436 8.84182 13.7252 8.56051 14.0065C8.27921 14.2878 7.89768 14.4458 7.49986 14.4458C7.10203 14.4458 6.7205 14.2878 6.43919 14.0065C6.15789 13.7252 5.99985 13.3436 5.99985 12.9458C5.99985 12.548 6.15789 12.1664 6.43919 11.8851C6.7205 11.6038 7.10203 11.4458 7.49986 11.4458C7.89768 11.4458 8.27921 11.6038 8.56051 11.8851C8.84182 12.1664 8.99986 12.548 8.99986 12.9458ZM11.9999 14.4458C11.602 14.4458 11.2205 14.2878 10.9392 14.0065C10.6579 13.7252 10.4999 13.3436 10.4999 12.9458C10.4999 12.548 10.6579 12.1664 10.9392 11.8851C11.2205 11.6038 11.602 11.4458 11.9999 11.4458C12.3977 11.4458 12.7792 11.6038 13.0605 11.8851C13.3418 12.1664 13.4999 12.548 13.4999 12.9458C13.4999 13.3436 13.3418 13.7252 13.0605 14.0065C12.7792 14.2878 12.3977 14.4458 11.9999 14.4458ZM17.9999 12.9458C17.9999 13.3436 17.8418 13.7252 17.5605 14.0065C17.2792 14.2878 16.8977 14.4458 16.4999 14.4458C16.102 14.4458 15.7205 14.2878 15.4392 14.0065C15.1579 13.7252 14.9999 13.3436 14.9999 12.9458C14.9999 12.548 15.1579 12.1664 15.4392 11.8851C15.7205 11.6038 16.102 11.4458 16.4999 11.4458C16.8977 11.4458 17.2792 11.6038 17.5605 11.8851C17.8418 12.1664 17.9999 12.548 17.9999 12.9458Z" fill="#065B3A"/>
</svg>
